<svg xmlns="http://www.w3.org/2000/svg" viewBox="0 0 200 200" width="200" height="200">
  <defs>
    <linearGradient id="skinGradient" x1="0%" y1="0%" x2="100%" y2="100%">
      <stop offset="0%" style="stop-color:#fdbcb4;stop-opacity:1" />
      <stop offset="100%" style="stop-color:#ee856d;stop-opacity:1" />
    </linearGradient>
    <linearGradient id="shirtGradient" x1="0%" y1="0%" x2="100%" y2="100%">
      <stop offset="0%" style="stop-color:#4a5568;stop-opacity:1" />
      <stop offset="100%" style="stop-color:#2d3748;stop-opacity:1" />
    </linearGradient>
    <linearGradient id="hairGradient" x1="0%" y1="0%" x2="100%" y2="100%">
      <stop offset="0%" style="stop-color:#8b4513;stop-opacity:1" />
      <stop offset="100%" style="stop-color:#654321;stop-opacity:1" />
    </linearGradient>
  </defs>
  
  <!-- Background circle -->
  <circle cx="100" cy="100" r="100" fill="#1a202c"/>
  
  <!-- Shirt/Body -->
  <ellipse cx="100" cy="160" rx="60" ry="40" fill="url(#shirtGradient)"/>
  
  <!-- Neck -->
  <ellipse cx="100" cy="140" rx="15" ry="20" fill="url(#skinGradient)"/>
  
  <!-- Face -->
  <ellipse cx="100" cy="100" rx="40" ry="45" fill="url(#skinGradient)"/>
  
  <!-- Hair -->
  <ellipse cx="100" cy="85" rx="45" ry="35" fill="url(#hairGradient)"/>
  <ellipse cx="85" cy="80" rx="20" ry="15" fill="url(#hairGradient)"/>
  <ellipse cx="115" cy="80" rx="20" ry="15" fill="url(#hairGradient)"/>
  
  <!-- Eyes -->
  <ellipse cx="88" cy="95" rx="4" ry="6" fill="#2d3748"/>
  <ellipse cx="112" cy="95" rx="4" ry="6" fill="#2d3748"/>
  <ellipse cx="88" cy="93" rx="1" ry="2" fill="#ffffff"/>
  <ellipse cx="112" cy="93" rx="1" ry="2" fill="#ffffff"/>
  
  <!-- Eyebrows -->
  <ellipse cx="88" cy="88" rx="6" ry="2" fill="url(#hairGradient)"/>
  <ellipse cx="112" cy="88" rx="6" ry="2" fill="url(#hairGradient)"/>
  
  <!-- Nose -->
  <ellipse cx="100" cy="105" rx="2" ry="4" fill="#ee856d"/>
  
  <!-- Mouth -->
  <ellipse cx="100" cy="115" rx="8" ry="3" fill="#8b4513"/>
  <ellipse cx="100" cy="113" rx="6" ry="2" fill="#ffffff"/>
  
  <!-- Beard/facial hair -->
  <ellipse cx="100" cy="125" rx="25" ry="15" fill="url(#hairGradient)" opacity="0.7"/>
  
  <!-- Collar -->
  <path d="M 70 150 Q 100 140 130 150 L 130 170 L 70 170 Z" fill="#2d3748"/>
  
  <!-- Subtle shading -->
  <ellipse cx="100" cy="110" rx="35" ry="40" fill="none" stroke="#ee856d" stroke-width="1" opacity="0.3"/>
</svg>
